<?xml version="1.0" encoding="UTF-8" standalone="no"?>
<!DOCTYPE svg PUBLIC "-//W3C//DTD SVG 1.1//EN"
 "http://www.w3.org/Graphics/SVG/1.1/DTD/svg11.dtd">
<!-- Generated by graphviz version 2.47.3 (20210619.1520)
 -->
<!-- Title: dependencies Pages: 1 -->
<svg width="1042pt" height="247pt"
 viewBox="0.00 0.00 1042.00 246.80" xmlns="http://www.w3.org/2000/svg" xmlns:xlink="http://www.w3.org/1999/xlink">
<g id="graph0" class="graph" transform="scale(1 1) rotate(0) translate(4 242.8)">
<title>dependencies</title>
<polygon fill="white" stroke="transparent" points="-4,4 -4,-242.8 1038,-242.8 1038,4 -4,4"/>
<text text-anchor="middle" x="517" y="-8.2" font-family="sans-serif" font-size="14.00">dependencies</text>
<g id="clust1" class="cluster">
<title>cluster_AppModule</title>
<polygon fill="none" stroke="black" stroke-dasharray="1,5" points="8,-32.8 8,-230.8 1026,-230.8 1026,-32.8 8,-32.8"/>
</g>
<g id="clust9" class="cluster">
<title>cluster_AppModule_bootstrap</title>
<polygon fill="none" stroke="black" points="459,-170.8 459,-222.8 583,-222.8 583,-170.8 459,-170.8"/>
</g>
<g id="clust10" class="cluster">
<title>cluster_AppModule_providers</title>
<polygon fill="none" stroke="black" points="742,-40.8 742,-92.8 1018,-92.8 1018,-40.8 742,-40.8"/>
</g>
<g id="clust7" class="cluster">
<title>cluster_AppModule_imports</title>
<polygon fill="none" stroke="black" points="590,-40.8 590,-92.8 734,-92.8 734,-40.8 590,-40.8"/>
</g>
<g id="clust2" class="cluster">
<title>cluster_AppModule_declarations</title>
<polygon fill="none" stroke="black" points="16,-40.8 16,-92.8 582,-92.8 582,-40.8 16,-40.8"/>
</g>
<!-- AppComponent -->
<g id="node1" class="node">
<title>AppComponent</title>
<polygon fill="#ffffb3" stroke="black" points="573.94,-84.8 468.06,-84.8 468.06,-48.8 573.94,-48.8 573.94,-84.8"/>
<text text-anchor="middle" x="521" y="-62.6" font-family="Times,serif" font-size="14.00">AppComponent</text>
</g>
<!-- AppModule -->
<g id="node5" class="node">
<title>AppModule</title>
<polygon fill="#8dd3c7" stroke="black" points="562.66,-149.8 559.66,-153.8 538.66,-153.8 535.66,-149.8 479.34,-149.8 479.34,-113.8 562.66,-113.8 562.66,-149.8"/>
<text text-anchor="middle" x="521" y="-127.6" font-family="Times,serif" font-size="14.00">AppModule</text>
</g>
<!-- AppComponent&#45;&gt;AppModule -->
<g id="edge1" class="edge">
<title>AppComponent&#45;&gt;AppModule</title>
<path fill="none" stroke="black" d="M521,-84.91C521,-84.91 521,-103.79 521,-103.79"/>
<polygon fill="black" stroke="black" points="517.5,-103.79 521,-113.79 524.5,-103.79 517.5,-103.79"/>
</g>
<!-- LoginComponent -->
<g id="node2" class="node">
<title>LoginComponent</title>
<polygon fill="#ffffb3" stroke="black" points="450.28,-84.8 335.72,-84.8 335.72,-48.8 450.28,-48.8 450.28,-84.8"/>
<text text-anchor="middle" x="393" y="-62.6" font-family="Times,serif" font-size="14.00">LoginComponent</text>
</g>
<!-- LoginComponent&#45;&gt;AppModule -->
<g id="edge2" class="edge">
<title>LoginComponent&#45;&gt;AppModule</title>
<path fill="none" stroke="black" d="M393,-84.83C393,-101.2 393,-122.8 393,-122.8 393,-122.8 469.09,-122.8 469.09,-122.8"/>
<polygon fill="black" stroke="black" points="469.09,-126.3 479.09,-122.8 469.09,-119.3 469.09,-126.3"/>
</g>
<!-- UserDetailComponent -->
<g id="node3" class="node">
<title>UserDetailComponent</title>
<polygon fill="#ffffb3" stroke="black" points="317.97,-84.8 176.03,-84.8 176.03,-48.8 317.97,-48.8 317.97,-84.8"/>
<text text-anchor="middle" x="247" y="-62.6" font-family="Times,serif" font-size="14.00">UserDetailComponent</text>
</g>
<!-- UserDetailComponent&#45;&gt;AppModule -->
<g id="edge3" class="edge">
<title>UserDetailComponent&#45;&gt;AppModule</title>
<path fill="none" stroke="black" d="M247,-84.91C247,-104.14 247,-131.8 247,-131.8 247,-131.8 469.09,-131.8 469.09,-131.8"/>
<polygon fill="black" stroke="black" points="469.09,-135.3 479.09,-131.8 469.09,-128.3 469.09,-135.3"/>
</g>
<!-- UserGridComponent -->
<g id="node4" class="node">
<title>UserGridComponent</title>
<polygon fill="#ffffb3" stroke="black" points="157.92,-84.8 24.08,-84.8 24.08,-48.8 157.92,-48.8 157.92,-84.8"/>
<text text-anchor="middle" x="91" y="-62.6" font-family="Times,serif" font-size="14.00">UserGridComponent</text>
</g>
<!-- UserGridComponent&#45;&gt;AppModule -->
<g id="edge4" class="edge">
<title>UserGridComponent&#45;&gt;AppModule</title>
<path fill="none" stroke="black" d="M91,-85.09C91,-107.01 91,-140.8 91,-140.8 91,-140.8 468.99,-140.8 468.99,-140.8"/>
<polygon fill="black" stroke="black" points="468.99,-144.3 478.99,-140.8 468.99,-137.3 468.99,-144.3"/>
</g>
<!-- AppComponent  -->
<g id="node7" class="node">
<title>AppComponent </title>
<polygon fill="#80b1d3" stroke="black" points="575.44,-214.8 466.56,-214.8 466.56,-178.8 575.44,-178.8 575.44,-214.8"/>
<text text-anchor="middle" x="521" y="-192.6" font-family="Times,serif" font-size="14.00">AppComponent </text>
</g>
<!-- AppModule&#45;&gt;AppComponent  -->
<g id="edge6" class="edge">
<title>AppModule&#45;&gt;AppComponent </title>
<path fill="none" stroke="black" stroke-dasharray="1,5" d="M521,-149.91C521,-149.91 521,-168.79 521,-168.79"/>
<polygon fill="black" stroke="black" points="517.5,-168.79 521,-178.79 524.5,-168.79 517.5,-168.79"/>
</g>
<!-- AppRoutingModule -->
<g id="node6" class="node">
<title>AppRoutingModule</title>
<polygon fill="#8dd3c7" stroke="black" points="726.27,-84.8 723.27,-88.8 702.27,-88.8 699.27,-84.8 597.73,-84.8 597.73,-48.8 726.27,-48.8 726.27,-84.8"/>
<text text-anchor="middle" x="662" y="-62.6" font-family="Times,serif" font-size="14.00">AppRoutingModule</text>
</g>
<!-- AppRoutingModule&#45;&gt;AppModule -->
<g id="edge5" class="edge">
<title>AppRoutingModule&#45;&gt;AppModule</title>
<path fill="none" stroke="black" d="M662,-84.83C662,-101.2 662,-122.8 662,-122.8 662,-122.8 572.92,-122.8 572.92,-122.8"/>
<polygon fill="black" stroke="black" points="572.92,-119.3 562.92,-122.8 572.92,-126.3 572.92,-119.3"/>
</g>
<!-- ApiService -->
<g id="node8" class="node">
<title>ApiService</title>
<ellipse fill="#fdb462" stroke="black" cx="956" cy="-66.8" rx="54.45" ry="18"/>
<text text-anchor="middle" x="956" y="-62.6" font-family="Times,serif" font-size="14.00">ApiService</text>
</g>
<!-- ApiService&#45;&gt;AppModule -->
<g id="edge7" class="edge">
<title>ApiService&#45;&gt;AppModule</title>
<path fill="none" stroke="black" d="M956,-85.09C956,-107.01 956,-140.8 956,-140.8 956,-140.8 572.71,-140.8 572.71,-140.8"/>
<polygon fill="black" stroke="black" points="572.71,-137.3 562.71,-140.8 572.71,-144.3 572.71,-137.3"/>
</g>
<!-- MyInterceptor -->
<g id="node9" class="node">
<title>MyInterceptor</title>
<ellipse fill="#fdb462" stroke="black" cx="817" cy="-66.8" rx="66.61" ry="18"/>
<text text-anchor="middle" x="817" y="-62.6" font-family="Times,serif" font-size="14.00">MyInterceptor</text>
</g>
<!-- MyInterceptor&#45;&gt;AppModule -->
<g id="edge8" class="edge">
<title>MyInterceptor&#45;&gt;AppModule</title>
<path fill="none" stroke="black" d="M817,-84.91C817,-104.14 817,-131.8 817,-131.8 817,-131.8 572.78,-131.8 572.78,-131.8"/>
<polygon fill="black" stroke="black" points="572.78,-128.3 562.78,-131.8 572.78,-135.3 572.78,-128.3"/>
</g>
</g>
</svg>
