<?xml version="1.0" encoding="UTF-8" standalone="no"?>
<!DOCTYPE svg PUBLIC "-//W3C//DTD SVG 1.1//EN"
 "http://www.w3.org/Graphics/SVG/1.1/DTD/svg11.dtd">
<!-- Generated by graphviz version 2.47.3 (20210619.1520)
 -->
<!-- Title: dependencies Pages: 1 -->
<svg width="1042pt" height="247pt"
 viewBox="0.00 0.00 1042.00 246.80" xmlns="http://www.w3.org/2000/svg" xmlns:xlink="http://www.w3.org/1999/xlink">
<g id="graph0" class="graph" transform="scale(1 1) rotate(0) translate(4 242.8)">
<title>dependencies</title>
<polygon fill="white" stroke="transparent" points="-4,4 -4,-242.8 1038,-242.8 1038,4 -4,4"/>
<text text-anchor="middle" x="517" y="-8.2" font-family="sans-serif" font-size="14.00">dependencies</text>
<g id="clust1" class="cluster">
<title>cluster_AppModule</title>
<polygon fill="none" stroke="black" stroke-dasharray="1,5" points="8,-32.8 8,-230.8 1026,-230.8 1026,-32.8 8,-32.8"/>
</g>
<g id="clust2" class="cluster">
<title>cluster_AppModule_declarations</title>
<polygon fill="none" stroke="black" points="452,-40.8 452,-92.8 1018,-92.8 1018,-40.8 452,-40.8"/>
</g>
<g id="clust7" class="cluster">
<title>cluster_AppModule_imports</title>
<polygon fill="none" stroke="black" points="300,-40.8 300,-92.8 444,-92.8 444,-40.8 300,-40.8"/>
</g>
<g id="clust9" class="cluster">
<title>cluster_AppModule_bootstrap</title>
<polygon fill="none" stroke="black" points="465,-170.8 465,-222.8 589,-222.8 589,-170.8 465,-170.8"/>
</g>
<g id="clust10" class="cluster">
<title>cluster_AppModule_providers</title>
<polygon fill="none" stroke="black" points="16,-40.8 16,-92.8 292,-92.8 292,-40.8 16,-40.8"/>
</g>
<!-- AppComponent -->
<g id="node1" class="node">
<title>AppComponent</title>
<polygon fill="#ffffb3" stroke="black" points="1009.94,-84.8 904.06,-84.8 904.06,-48.8 1009.94,-48.8 1009.94,-84.8"/>
<text text-anchor="middle" x="957" y="-62.6" font-family="Times,serif" font-size="14.00">AppComponent</text>
</g>
<!-- AppModule -->
<g id="node5" class="node">
<title>AppModule</title>
<polygon fill="#8dd3c7" stroke="black" points="568.66,-149.8 565.66,-153.8 544.66,-153.8 541.66,-149.8 485.34,-149.8 485.34,-113.8 568.66,-113.8 568.66,-149.8"/>
<text text-anchor="middle" x="527" y="-127.6" font-family="Times,serif" font-size="14.00">AppModule</text>
</g>
<!-- AppComponent&#45;&gt;AppModule -->
<g id="edge1" class="edge">
<title>AppComponent&#45;&gt;AppModule</title>
<path fill="none" stroke="black" d="M957,-85.09C957,-107.01 957,-140.8 957,-140.8 957,-140.8 579.01,-140.8 579.01,-140.8"/>
<polygon fill="black" stroke="black" points="579.01,-137.3 569.01,-140.8 579.01,-144.3 579.01,-137.3"/>
</g>
<!-- LoginComponent -->
<g id="node2" class="node">
<title>LoginComponent</title>
<polygon fill="#ffffb3" stroke="black" points="886.28,-84.8 771.72,-84.8 771.72,-48.8 886.28,-48.8 886.28,-84.8"/>
<text text-anchor="middle" x="829" y="-62.6" font-family="Times,serif" font-size="14.00">LoginComponent</text>
</g>
<!-- LoginComponent&#45;&gt;AppModule -->
<g id="edge2" class="edge">
<title>LoginComponent&#45;&gt;AppModule</title>
<path fill="none" stroke="black" d="M829,-84.91C829,-104.14 829,-131.8 829,-131.8 829,-131.8 578.67,-131.8 578.67,-131.8"/>
<polygon fill="black" stroke="black" points="578.67,-128.3 568.67,-131.8 578.67,-135.3 578.67,-128.3"/>
</g>
<!-- UserDetailComponent -->
<g id="node3" class="node">
<title>UserDetailComponent</title>
<polygon fill="#ffffb3" stroke="black" points="753.97,-84.8 612.03,-84.8 612.03,-48.8 753.97,-48.8 753.97,-84.8"/>
<text text-anchor="middle" x="683" y="-62.6" font-family="Times,serif" font-size="14.00">UserDetailComponent</text>
</g>
<!-- UserDetailComponent&#45;&gt;AppModule -->
<g id="edge3" class="edge">
<title>UserDetailComponent&#45;&gt;AppModule</title>
<path fill="none" stroke="black" d="M683,-84.83C683,-101.2 683,-122.8 683,-122.8 683,-122.8 578.81,-122.8 578.81,-122.8"/>
<polygon fill="black" stroke="black" points="578.81,-119.3 568.81,-122.8 578.81,-126.3 578.81,-119.3"/>
</g>
<!-- UserGridComponent -->
<g id="node4" class="node">
<title>UserGridComponent</title>
<polygon fill="#ffffb3" stroke="black" points="593.92,-84.8 460.08,-84.8 460.08,-48.8 593.92,-48.8 593.92,-84.8"/>
<text text-anchor="middle" x="527" y="-62.6" font-family="Times,serif" font-size="14.00">UserGridComponent</text>
</g>
<!-- UserGridComponent&#45;&gt;AppModule -->
<g id="edge4" class="edge">
<title>UserGridComponent&#45;&gt;AppModule</title>
<path fill="none" stroke="black" d="M527,-84.91C527,-84.91 527,-103.79 527,-103.79"/>
<polygon fill="black" stroke="black" points="523.5,-103.79 527,-113.79 530.5,-103.79 523.5,-103.79"/>
</g>
<!-- AppComponent  -->
<g id="node7" class="node">
<title>AppComponent </title>
<polygon fill="#80b1d3" stroke="black" points="581.44,-214.8 472.56,-214.8 472.56,-178.8 581.44,-178.8 581.44,-214.8"/>
<text text-anchor="middle" x="527" y="-192.6" font-family="Times,serif" font-size="14.00">AppComponent </text>
</g>
<!-- AppModule&#45;&gt;AppComponent  -->
<g id="edge6" class="edge">
<title>AppModule&#45;&gt;AppComponent </title>
<path fill="none" stroke="black" stroke-dasharray="1,5" d="M527,-149.91C527,-149.91 527,-168.79 527,-168.79"/>
<polygon fill="black" stroke="black" points="523.5,-168.79 527,-178.79 530.5,-168.79 523.5,-168.79"/>
</g>
<!-- AppRoutingModule -->
<g id="node6" class="node">
<title>AppRoutingModule</title>
<polygon fill="#8dd3c7" stroke="black" points="436.27,-84.8 433.27,-88.8 412.27,-88.8 409.27,-84.8 307.73,-84.8 307.73,-48.8 436.27,-48.8 436.27,-84.8"/>
<text text-anchor="middle" x="372" y="-62.6" font-family="Times,serif" font-size="14.00">AppRoutingModule</text>
</g>
<!-- AppRoutingModule&#45;&gt;AppModule -->
<g id="edge5" class="edge">
<title>AppRoutingModule&#45;&gt;AppModule</title>
<path fill="none" stroke="black" d="M372,-84.83C372,-101.2 372,-122.8 372,-122.8 372,-122.8 475.05,-122.8 475.05,-122.8"/>
<polygon fill="black" stroke="black" points="475.05,-126.3 485.05,-122.8 475.05,-119.3 475.05,-126.3"/>
</g>
<!-- ApiService -->
<g id="node8" class="node">
<title>ApiService</title>
<ellipse fill="#fdb462" stroke="black" cx="230" cy="-66.8" rx="54.45" ry="18"/>
<text text-anchor="middle" x="230" y="-62.6" font-family="Times,serif" font-size="14.00">ApiService</text>
</g>
<!-- ApiService&#45;&gt;AppModule -->
<g id="edge7" class="edge">
<title>ApiService&#45;&gt;AppModule</title>
<path fill="none" stroke="black" d="M230,-84.91C230,-104.14 230,-131.8 230,-131.8 230,-131.8 475.08,-131.8 475.08,-131.8"/>
<polygon fill="black" stroke="black" points="475.08,-135.3 485.08,-131.8 475.08,-128.3 475.08,-135.3"/>
</g>
<!-- MyInterceptor -->
<g id="node9" class="node">
<title>MyInterceptor</title>
<ellipse fill="#fdb462" stroke="black" cx="91" cy="-66.8" rx="66.61" ry="18"/>
<text text-anchor="middle" x="91" y="-62.6" font-family="Times,serif" font-size="14.00">MyInterceptor</text>
</g>
<!-- MyInterceptor&#45;&gt;AppModule -->
<g id="edge8" class="edge">
<title>MyInterceptor&#45;&gt;AppModule</title>
<path fill="none" stroke="black" d="M91,-85.09C91,-107.01 91,-140.8 91,-140.8 91,-140.8 475.19,-140.8 475.19,-140.8"/>
<polygon fill="black" stroke="black" points="475.19,-144.3 485.19,-140.8 475.19,-137.3 475.19,-144.3"/>
</g>
</g>
</svg>
